<svg xmlns="http://www.w3.org/2000/svg" viewBox="0 0 512 512" role="img" aria-labelledby="title desc">
  <title id="title">Uvindu Hewage monogram</title>
  <desc id="desc">A geometric UH monogram in blue and coral on a dark rounded square.</desc>
  <defs>
    <linearGradient id="u" x1="96" y1="96" x2="290" y2="394" gradientUnits="userSpaceOnUse">
      <stop stop-color="#60A5FA"/>
      <stop offset="1" stop-color="#2563EB"/>
    </linearGradient>
    <linearGradient id="h" x1="272" y1="126" x2="422" y2="380" gradientUnits="userSpaceOnUse">
      <stop stop-color="#FB7185"/>
      <stop offset="1" stop-color="#E11D48"/>
    </linearGradient>
  </defs>
  <rect width="512" height="512" rx="112" fill="#0B1220"/>
  <rect x="22" y="22" width="468" height="468" rx="92" fill="none" stroke="#334155" stroke-width="8"/>
  <path d="M104 126h60v156c0 35 18 57 51 57s51-22 51-57V126h60v162c0 72-43 116-111 116S104 360 104 288V126Z" fill="url(#u)"/>
  <path d="M315 156h58v70h57v-70h58v200h-58v-76h-57v76h-58V156Z" fill="url(#h)"/>
  <circle cx="402" cy="122" r="14" fill="#FBBF24"/>
</svg>